# xmcd CD database file
#
# Track frame offsets:
#	150
#	26934
#	42640
#	69302
#	91034
#	112998
#	137931
#	157668
#	169149
#	188923
#
# Disc length: 2774 seconds
#
# Revision: 0
# Processed by: cddbd v1.5.2PL0 Copyright (c) Steve Scherf et al.
# Submitted via: CDex 1.70beta2
#
DISCID=800ad40a
DTITLE=Darrell Raines - Moanin' time
DYEAR=2008
DGENRE=Blues
TTITLE0=Moanin' time in Arkansas
TTITLE1=Baby caught a train
TTITLE2=Love doctor
TTITLE3=Drug hole
TTITLE4=Don't bring it on home
TTITLE5=Making ends meet
TTITLE6=Fever
TTITLE7=Your love
TTITLE8=Betty's kitchen
TTITLE9=Biscuits
EXTD=YEAR: 2008
EXTT0=
EXTT1=
EXTT2=
EXTT3=
EXTT4=
EXTT5=
EXTT6=
EXTT7=
EXTT8=
EXTT9=
PLAYORDER=
